<svg xmlns="http://www.w3.org/2000/svg" viewBox="0 0 250 181"><defs><style>.cls-1{fill:#fff;}.cls-2{fill:none;stroke:#fff;stroke-miterlimit:10;stroke-width:6px;}</style></defs><g id="Layer_2" data-name="Layer 2"><g id="Layer_1-2" data-name="Layer 1"><path class="cls-1" d="M243,7V174H7V7H243m7-7H0V181H250V0Z"/><path class="cls-1" d="M36.06,25.65H68.17a61.4,61.4,0,0,1,16.64,1.88,27.27,27.27,0,0,1,10.33,5.2,17.08,17.08,0,0,1,5.27,7.8,31.41,31.41,0,0,1,1.43,9.56,23.2,23.2,0,0,1-2.6,10.85q-2.61,5-9.49,8.26A29,29,0,0,1,97,73.62a22.31,22.31,0,0,1,4.55,5.26,19.28,19.28,0,0,1,2.34,5.85,29.89,29.89,0,0,1,.65,6.18,32.77,32.77,0,0,1-1.76,10.79A21.21,21.21,0,0,1,97,110.47a28.59,28.59,0,0,1-10.53,5.85,51.58,51.58,0,0,1-16,2.15H36.06ZM70,63.74q9.23,0,12.87-3.38t3.64-9.75q0-6.63-4.23-9.56T67.65,38.13H51.27V63.74Zm0,42.12a35.17,35.17,0,0,0,9.29-1,14.39,14.39,0,0,0,5.85-3,10.92,10.92,0,0,0,3.06-4.68A19.46,19.46,0,0,0,89.1,91q0-7-4-10.73t-13.71-3.7H51.27v29.25Z"/><path class="cls-1" d="M149.06,64.65h32.11q10.53,0,17.35,2.34a27.55,27.55,0,0,1,10.73,6.24,21.43,21.43,0,0,1,5.46,9A36.74,36.74,0,0,1,216.27,93a41.48,41.48,0,0,1-1.56,11.44,22.4,22.4,0,0,1-5.53,9.55,27.4,27.4,0,0,1-10.72,6.5q-6.77,2.42-17,2.41h-16.9v34.58H149.06Zm32,45.11a34.35,34.35,0,0,0,9.81-1.17,14.71,14.71,0,0,0,6.05-3.32,11.31,11.31,0,0,0,3-5.13,25,25,0,0,0,.85-6.76,23.29,23.29,0,0,0-.91-6.83,10.32,10.32,0,0,0-3.19-4.87,15.45,15.45,0,0,0-6.11-3,37.46,37.46,0,0,0-9.68-1H164.53v32.11Z"/><line class="cls-2" x1="125.5" y1="143.5" x2="125.5" y2="44"/></g></g></svg>