<?xml version="1.0" standalone="no"?>
<!DOCTYPE svg PUBLIC "-//W3C//DTD SVG 20010904//EN"
 "http://www.w3.org/TR/2001/REC-SVG-20010904/DTD/svg10.dtd">
<svg version="1.0" xmlns="http://www.w3.org/2000/svg"
 width="500.000000pt" height="500.000000pt" viewBox="0 0 500.000000 500.000000"
 preserveAspectRatio="xMidYMid meet">
<metadata>
Created by potrace 1.11, written by Peter Selinger 2001-2013
</metadata>
<g transform="translate(0.000000,500.000000) scale(0.100000,-0.100000)"
fill="#000000" stroke="none">
<path d="M188 4582 l-47 -3 0 -1370 0 -1370 592 2 c326 0 617 5 647 10 30 5
73 11 95 14 66 10 184 44 240 70 28 14 55 25 59 25 15 0 144 92 185 132 158
155 234 426 197 698 -27 199 -169 379 -379 481 l-47 23 60 34 c195 109 293
291 294 542 0 278 -101 465 -315 583 -62 34 -209 83 -289 97 -36 6 -76 13 -90
16 -76 13 -1040 26 -1202 16z m1022 -376 c95 -6 130 -13 205 -38 99 -34 139
-69 183 -158 25 -50 27 -65 27 -170 0 -105 -3 -120 -29 -177 -56 -123 -154
-181 -331 -199 -33 -4 -198 -7 -367 -8 l-308 -1 0 377 0 377 123 3 c159 4 402
1 497 -6z m169 -1145 c224 -43 333 -186 326 -428 -4 -139 -32 -217 -102 -286
-50 -51 -139 -95 -224 -112 -13 -3 -35 -8 -49 -11 -14 -4 -186 -8 -382 -10
l-358 -3 0 428 c0 235 2 430 5 433 11 11 721 1 784 -11z"/>
<path d="M2850 2061 l0 -1371 230 0 230 0 0 510 0 510 288 1 c341 1 448 6 537
26 11 2 29 6 40 8 162 28 374 139 465 243 42 47 110 146 110 160 0 4 6 18 13
32 21 39 56 177 64 250 11 97 8 297 -6 362 -7 32 -12 59 -11 60 1 2 -11 37
-26 78 -94 264 -314 418 -689 486 -22 4 -311 9 -642 11 l-603 4 0 -1370z
m1150 974 c62 -11 164 -46 206 -70 52 -30 111 -96 135 -149 37 -85 46 -233 24
-393 -14 -99 -97 -207 -197 -255 -112 -55 -155 -60 -520 -65 l-338 -5 0 469
c0 258 3 472 6 476 8 8 638 1 684 -8z"/>
</g>
</svg>
